<?xml version="1.0" encoding="UTF-8"?>
<svg width="10px" height="12px" viewBox="0 0 10 12" version="1.1" xmlns="http://www.w3.org/2000/svg" xmlns:xlink="http://www.w3.org/1999/xlink">
    <!-- Generator: Sketch 51.1 (57501) - http://www.bohemiancoding.com/sketch -->
    <title>Location_10x12</title>
    <desc>Created with Sketch.</desc>
    <defs></defs>
    <g id="Location_10x12" stroke="none" stroke-width="1" fill="none" fill-rule="evenodd">
        <path d="M6.725,10.575 C8.025,9.35 9.75,7.225 9.75,4.75 C9.75,3.675 9.4,2.7 8.8,1.925 C7.925,0.75 6.55,0 5,0 C2.375,0 0.25,2.125 0.25,4.75 C0.25,6.85 1.5,8.7 2.65,9.95 L3.575,10.875 C4.15,11.4 4.6,11.725 4.65,11.75 L5,12 L5.35,11.75 C5.4,11.725 6.25,11 6.725,10.575 Z M2.925,4.75 C2.925,3.6 3.85,2.675 5,2.675 C6.15,2.675 7.075,3.6 7.075,4.75 C7.075,5.9 6.15,6.825 5,6.825 C3.85,6.825 2.925,5.9 2.925,4.75 L2.925,4.75 Z" id="location-filled-30px" fill="#3F1D75"></path>
    </g>
</svg>